<svg width="24" height="24" viewBox="0 0 24 24" fill="none" xmlns="http://www.w3.org/2000/svg">
<path d="M8.557 13.5H4.682C4.16859 13.5029 3.67721 13.7089 3.3152 14.073C2.95319 14.437 2.74999 14.9296 2.75 15.443V19.318C2.74974 19.5718 2.79953 19.8231 2.89653 20.0577C2.99353 20.2922 3.13583 20.5053 3.31528 20.6847C3.49474 20.8642 3.70783 21.0065 3.94235 21.1035C4.17687 21.2005 4.42821 21.2503 4.682 21.25H8.557C9.07048 21.2505 9.56324 21.0475 9.92726 20.6853C10.2913 20.3232 10.4969 19.8315 10.499 19.318V15.443C10.4987 14.928 10.294 14.4342 9.92991 14.0701C9.56577 13.706 9.07197 13.5013 8.557 13.501M8.557 2.75H4.682C4.42821 2.74974 4.17687 2.79953 3.94235 2.89653C3.70783 2.99353 3.49474 3.13583 3.31528 3.31528C3.13583 3.49474 2.99353 3.70783 2.89653 3.94235C2.79953 4.17687 2.74974 4.42821 2.75 4.682V8.557C2.74947 9.07048 2.95253 9.56324 3.31468 9.92726C3.67683 10.2913 4.16852 10.4969 4.682 10.499H8.557C8.8121 10.4993 9.06475 10.4492 9.30048 10.3517C9.53622 10.2542 9.75041 10.1112 9.93079 9.93079C10.1112 9.75041 10.2542 9.53622 10.3517 9.30048C10.4492 9.06475 10.4993 8.8121 10.499 8.557V4.682C10.4969 4.1687 10.2914 3.67715 9.92761 3.31503C9.56381 2.95291 9.07031 2.74973 8.557 2.75ZM19.318 2.75H15.443C14.9295 2.74947 14.4368 2.95253 14.0727 3.31468C13.7087 3.67683 13.5031 4.16852 13.501 4.682V8.557C13.5013 9.07197 13.706 9.56577 14.0701 9.92991C14.4342 10.294 14.928 10.4987 15.443 10.499H19.318C19.8315 10.4969 20.3232 10.2913 20.6853 9.92726C21.0475 9.56324 21.2505 9.07048 21.25 8.557V4.682C21.2503 4.42821 21.2005 4.17687 21.1035 3.94235C21.0065 3.70783 20.8642 3.49474 20.6847 3.31528C20.5053 3.13583 20.2922 2.99353 20.0577 2.89653C19.8231 2.79953 19.5718 2.74974 19.318 2.75Z" stroke="white" stroke-width="1.5" stroke-linecap="round" stroke-linejoin="round"/>
<path d="M19.8914 14.8555L14.8594 19.8875M14.8604 14.8665L19.8914 19.8985" stroke="white" stroke-width="1.5" stroke-miterlimit="10" stroke-linecap="round"/>
</svg>
