<svg width="24" height="24" viewBox="0 0 24 24" fill="none" xmlns="http://www.w3.org/2000/svg">
<path d="M10.9542 11.1224C10.0312 11.1224 9.12898 10.8487 8.36155 10.3359C7.59412 9.82314 6.99599 9.09431 6.64278 8.24159C6.28957 7.38887 6.19715 6.45055 6.37722 5.54531C6.55728 4.64006 7.00174 3.80854 7.65438 3.1559C8.30703 2.50325 9.13855 2.0588 10.0438 1.87873C10.949 1.69867 11.8873 1.79108 12.7401 2.14429C13.5928 2.4975 14.3216 3.09564 14.8344 3.86307C15.3472 4.6305 15.6209 5.53275 15.6209 6.45573C15.6209 7.69341 15.1292 8.88039 14.254 9.75556C13.3789 10.6307 12.1919 11.1224 10.9542 11.1224ZM10.9542 3.17573C10.2949 3.17573 9.65048 3.37123 9.10231 3.7375C8.55415 4.10377 8.12691 4.62437 7.87462 5.23345C7.62232 5.84254 7.55631 6.51276 7.68493 7.15937C7.81355 7.80597 8.13102 8.39991 8.59719 8.86609C9.06337 9.33226 9.65731 9.64973 10.3039 9.77835C10.9505 9.90697 11.6207 9.84095 12.2298 9.58866C12.8389 9.33637 13.3595 8.90913 13.7258 8.36097C14.0921 7.8128 14.2875 7.16834 14.2875 6.50906C14.2875 6.07133 14.2013 5.63787 14.0338 5.23345C13.8663 4.82903 13.6208 4.46157 13.3112 4.15204C13.0017 3.84251 12.6342 3.59698 12.2298 3.42947C11.8254 3.26195 11.392 3.17573 10.9542 3.17573ZM14.6675 11.9291C11.0599 11.1168 7.28544 11.5078 3.92088 13.0424C3.45815 13.2634 3.06772 13.6114 2.79508 14.0457C2.52244 14.4801 2.3788 14.9829 2.38088 15.4957V19.4624C2.38088 19.5499 2.39813 19.6366 2.43163 19.7175C2.46513 19.7984 2.51424 19.8719 2.57614 19.9338C2.63805 19.9957 2.71154 20.0448 2.79243 20.0783C2.87331 20.1118 2.96 20.1291 3.04755 20.1291C3.1351 20.1291 3.22179 20.1118 3.30267 20.0783C3.38355 20.0448 3.45705 19.9957 3.51895 19.9338C3.58086 19.8719 3.62996 19.7984 3.66347 19.7175C3.69697 19.6366 3.71422 19.5499 3.71422 19.4624V15.4957C3.70841 15.2362 3.77849 14.9806 3.91587 14.7603C4.05324 14.5401 4.25193 14.3647 4.48755 14.2557C6.51432 13.3197 8.72174 12.8395 10.9542 12.8491C12.2051 12.8476 13.4517 12.9953 14.6675 13.2891V11.9291ZM14.7609 18.2691H18.8542V19.2024H14.7609V18.2691Z" fill="white"/>
<path d="M22.1127 14.3107H18.666V15.6441H21.446V21.2241H11.9993V15.6441H16.1993V15.9241C16.1993 16.1009 16.2696 16.2704 16.3946 16.3955C16.5196 16.5205 16.6892 16.5907 16.866 16.5907C17.0428 16.5907 17.2124 16.5205 17.3374 16.3955C17.4624 16.2704 17.5327 16.1009 17.5327 15.9241V13.3307C17.5327 13.1539 17.4624 12.9843 17.3374 12.8593C17.2124 12.7343 17.0428 12.6641 16.866 12.6641C16.6892 12.6641 16.5196 12.7343 16.3946 12.8593C16.2696 12.9843 16.1993 13.1539 16.1993 13.3307V14.3107H11.3327C11.1559 14.3107 10.9863 14.381 10.8613 14.506C10.7363 14.631 10.666 14.8006 10.666 14.9774V21.8907C10.666 22.0675 10.7363 22.2371 10.8613 22.3621C10.9863 22.4872 11.1559 22.5574 11.3327 22.5574H22.1127C22.2895 22.5574 22.4591 22.4872 22.5841 22.3621C22.7091 22.2371 22.7793 22.0675 22.7793 21.8907V14.9774C22.7793 14.8006 22.7091 14.631 22.5841 14.506C22.4591 14.381 22.2895 14.3107 22.1127 14.3107Z" fill="white"/>
</svg>
