<svg width="24" height="24" viewBox="0 0 24 24" fill="none" xmlns="http://www.w3.org/2000/svg">
<path d="M17.5 11V7.3C17.5 5.037 17.5 3.906 16.725 3.203C15.949 2.5 14.702 2.5 12.205 2.5H7.795C5.298 2.5 4.051 2.5 3.275 3.203C2.499 3.906 2.5 5.037 2.5 7.3V13.7C2.5 15.963 2.5 17.094 3.275 17.797C4.051 18.5 5.298 18.5 7.795 18.5H11M5.5 6.5H14.5M5.5 10.5H6.5M9.5 10.5H10.5M13.5 10.5H14.5M5.5 14.5H6.5M9.5 14.5H10.5" stroke="white" stroke-width="1.5" stroke-linecap="round" stroke-linejoin="round"/>
<path d="M17.5 21.5C19.7091 21.5 21.5 19.7091 21.5 17.5C21.5 15.2909 19.7091 13.5 17.5 13.5C15.2909 13.5 13.5 15.2909 13.5 17.5C13.5 19.7091 15.2909 21.5 17.5 21.5Z" stroke="white" stroke-width="1.5" stroke-linecap="round" stroke-linejoin="round"/>
<path d="M18.5 18L17.5 17.5V16" stroke="white" stroke-width="1.5" stroke-linecap="round" stroke-linejoin="round"/>
</svg>
