<svg width="20" height="20" viewBox="0 0 20 20" fill="none" xmlns="http://www.w3.org/2000/svg">
<path fill-rule="evenodd" clip-rule="evenodd" d="M3.57143 1H16.4286C17.1106 1 17.7646 1.27092 18.2468 1.75315C18.7291 2.23539 19 2.88944 19 3.57143V16.4286C19 17.1106 18.7291 17.7646 18.2468 18.2468C17.7646 18.7291 17.1106 19 16.4286 19H3.57143C2.88944 19 2.23539 18.7291 1.75315 18.2468C1.27092 17.7646 1 17.1106 1 16.4286V3.57143C1 2.88944 1.27092 2.23539 1.75315 1.75315C2.23539 1.27092 2.88944 1 3.57143 1Z" stroke="#005A8D" stroke-linecap="round" stroke-linejoin="round"/>
<path d="M19 13.8583L15.1429 10.0011L11.2857 13.839M16.4286 19.0011L4.85714 7.42969L1 11.2868" stroke="#005A8D" stroke-linecap="round" stroke-linejoin="round"/>
<path d="M15.2853 5.50056C15.2853 5.9345 14.9335 6.28627 14.4996 6.28627C14.0656 6.28627 13.7139 5.9345 13.7139 5.50056C13.7139 5.06662 14.0656 4.71484 14.4996 4.71484C14.9335 4.71484 15.2853 5.06662 15.2853 5.50056Z" stroke="#005A8D"/>
</svg>
