<svg width="24" height="24" viewBox="0 0 24 24" fill="none" xmlns="http://www.w3.org/2000/svg">
<path fill-rule="evenodd" clip-rule="evenodd" d="M15.998 9.00391C15.998 10.0648 15.5766 11.0822 14.8265 11.8323C14.0763 12.5825 13.0589 13.0039 11.998 13.0039C10.9372 13.0039 9.91977 12.5825 9.16962 11.8323C8.41947 11.0822 7.99805 10.0648 7.99805 9.00391C7.99805 7.94304 8.41947 6.92562 9.16962 6.17548C9.91977 5.42533 10.9372 5.00391 11.998 5.00391C13.0589 5.00391 14.0763 5.42533 14.8265 6.17548C15.5766 6.92562 15.998 7.94304 15.998 9.00391ZM13.998 9.00391C13.998 9.53434 13.7873 10.043 13.4123 10.4181C13.0372 10.7932 12.5285 11.0039 11.998 11.0039C11.4676 11.0039 10.9589 10.7932 10.5838 10.4181C10.2088 10.043 9.99805 9.53434 9.99805 9.00391C9.99805 8.47347 10.2088 7.96477 10.5838 7.58969C10.9589 7.21462 11.4676 7.00391 11.998 7.00391C12.5285 7.00391 13.0372 7.21462 13.4123 7.58969C13.7873 7.96477 13.998 8.47347 13.998 9.00391Z" fill="white"/>
<path fill-rule="evenodd" clip-rule="evenodd" d="M11.998 1.00391C5.92305 1.00391 0.998047 5.92891 0.998047 12.0039C0.998047 18.0789 5.92305 23.0039 11.998 23.0039C18.073 23.0039 22.998 18.0789 22.998 12.0039C22.998 5.92891 18.073 1.00391 11.998 1.00391ZM2.99805 12.0039C2.99805 14.0939 3.71105 16.0179 4.90605 17.5459C5.74549 16.444 6.8282 15.551 8.06969 14.9366C9.31117 14.3222 10.6778 14.003 12.063 14.0039C13.4304 14.0023 14.7801 14.313 16.0092 14.9123C17.2382 15.5116 18.3142 16.3836 19.155 17.4619C20.0215 16.3255 20.6049 14.9991 20.8569 13.5925C21.109 12.1859 21.0225 10.7394 20.6045 9.37289C20.1866 8.00634 19.4493 6.75895 18.4535 5.73394C17.4578 4.70893 16.2323 3.93577 14.8784 3.47842C13.5246 3.02106 12.0812 2.89268 10.6679 3.10388C9.25457 3.31508 7.91184 3.8598 6.75082 4.69296C5.58979 5.52612 4.64386 6.62378 3.99128 7.8951C3.33869 9.16643 2.99823 10.5749 2.99805 12.0039ZM11.998 21.0039C9.93195 21.0073 7.92819 20.2965 6.32605 18.9919C6.97086 18.0685 7.82924 17.3146 8.82812 16.7944C9.827 16.2741 10.9368 16.0029 12.063 16.0039C13.1752 16.0029 14.2716 16.2674 15.261 16.7752C16.2505 17.2831 17.1045 18.0197 17.752 18.9239C16.1375 20.2709 14.1007 21.0072 11.998 21.0039Z" fill="white"/>
</svg>
