<svg width="24" height="24" viewBox="0 0 24 24" fill="none" xmlns="http://www.w3.org/2000/svg">
<path d="M12.0002 4.8C13.4356 4.80003 14.8382 5.22912 16.028 6.03216C17.2178 6.8352 18.1403 7.97553 18.6773 9.30674C19.2142 10.638 19.341 12.0993 19.0413 13.5031C18.7417 14.9069 18.0293 16.189 16.9956 17.185C15.9619 18.1809 14.6541 18.8452 13.2401 19.0924C11.8262 19.3396 10.3706 19.1586 9.06025 18.5725C7.74993 17.9864 6.6447 17.0221 5.88646 15.8033C5.12823 14.5845 4.75161 13.1668 4.80496 11.7324C4.80995 11.6139 4.79145 11.4955 4.75053 11.3841C4.70961 11.2728 4.64707 11.1706 4.56651 11.0835C4.48595 10.9964 4.38896 10.926 4.28112 10.8766C4.17328 10.8271 4.05673 10.7994 3.93815 10.7951C3.81958 10.7908 3.70133 10.8101 3.59022 10.8517C3.4791 10.8933 3.3773 10.9564 3.29068 11.0375C3.20406 11.1186 3.13433 11.216 3.0855 11.3241C3.03667 11.4323 3.00971 11.549 3.00616 11.6676C2.92944 13.7412 3.57157 15.7775 4.82385 17.432C6.07613 19.0865 7.86163 20.2574 9.8781 20.7466C11.8946 21.2358 14.0182 21.0133 15.8894 20.1166C17.7606 19.2199 19.2645 17.7041 20.1465 15.8259C21.0285 13.9478 21.2344 11.8225 20.7294 9.80992C20.2244 7.79735 19.0395 6.02109 17.3752 4.78182C15.711 3.54255 13.6696 2.91641 11.5968 3.00938C9.52387 3.10235 7.54678 3.90872 6.00016 5.292V3.9C6.00016 3.66131 5.90534 3.43239 5.73655 3.2636C5.56777 3.09482 5.33885 3 5.10016 3C4.86146 3 4.63254 3.09482 4.46376 3.2636C4.29498 3.43239 4.20016 3.66131 4.20016 3.9V7.5C4.20016 7.9968 4.60336 8.4 5.10016 8.4H8.70016C8.93885 8.4 9.16777 8.30518 9.33655 8.1364C9.50534 7.96761 9.60016 7.7387 9.60016 7.5C9.60016 7.26131 9.50534 7.03239 9.33655 6.8636C9.16777 6.69482 8.93885 6.6 8.70016 6.6H7.23736C8.55157 5.43801 10.2459 4.79767 12.0002 4.8ZM12.6002 7.5C12.6002 7.26131 12.5053 7.03239 12.3366 6.8636C12.1678 6.69482 11.9389 6.6 11.7002 6.6C11.4615 6.6 11.2325 6.69482 11.0638 6.8636C10.895 7.03239 10.8002 7.26131 10.8002 7.5V12.3C10.8002 12.7968 11.2034 13.2 11.7002 13.2H15.3002C15.5389 13.2 15.7678 13.1052 15.9366 12.9364C16.1053 12.7676 16.2002 12.5387 16.2002 12.3C16.2002 12.0613 16.1053 11.8324 15.9366 11.6636C15.7678 11.4948 15.5389 11.4 15.3002 11.4H12.6002V7.5Z" fill="white"/>
</svg>
