<svg width="24" height="24" viewBox="0 0 24 24" fill="none" xmlns="http://www.w3.org/2000/svg">
<path d="M12.002 13.9961C12.1997 13.9961 12.3931 13.9374 12.5575 13.8276C12.722 13.7177 12.8501 13.5615 12.9258 13.3788C13.0015 13.1961 13.0213 12.995 12.9827 12.801C12.9442 12.607 12.8489 12.4288 12.7091 12.289C12.5692 12.1491 12.391 12.0539 12.197 12.0153C12.0031 11.9767 11.802 11.9965 11.6193 12.0722C11.4365 12.1479 11.2804 12.2761 11.1705 12.4405C11.0606 12.605 11.002 12.7983 11.002 12.9961C11.002 13.2613 11.1073 13.5157 11.2948 13.7032C11.4824 13.8907 11.7367 13.9961 12.002 13.9961ZM17.002 13.9961C17.1997 13.9961 17.3931 13.9374 17.5575 13.8276C17.722 13.7177 17.8501 13.5615 17.9258 13.3788C18.0015 13.1961 18.0213 12.995 17.9827 12.801C17.9442 12.607 17.8489 12.4288 17.7091 12.289C17.5692 12.1491 17.391 12.0539 17.197 12.0153C17.0031 11.9767 16.802 11.9965 16.6193 12.0722C16.4365 12.1479 16.2804 12.2761 16.1705 12.4405C16.0606 12.605 16.002 12.7983 16.002 12.9961C16.002 13.2613 16.1073 13.5157 16.2948 13.7032C16.4824 13.8907 16.7367 13.9961 17.002 13.9961ZM12.002 17.9961C12.1997 17.9961 12.3931 17.9374 12.5575 17.8276C12.722 17.7177 12.8501 17.5615 12.9258 17.3788C13.0015 17.1961 13.0213 16.995 12.9827 16.801C12.9442 16.607 12.8489 16.4288 12.7091 16.289C12.5692 16.1491 12.391 16.0539 12.197 16.0153C12.0031 15.9767 11.802 15.9965 11.6193 16.0722C11.4365 16.1479 11.2804 16.2761 11.1705 16.4405C11.0606 16.605 11.002 16.7983 11.002 16.9961C11.002 17.2613 11.1073 17.5157 11.2948 17.7032C11.4824 17.8907 11.7367 17.9961 12.002 17.9961ZM17.002 17.9961C17.1997 17.9961 17.3931 17.9374 17.5575 17.8276C17.722 17.7177 17.8501 17.5615 17.9258 17.3788C18.0015 17.1961 18.0213 16.995 17.9827 16.801C17.9442 16.607 17.8489 16.4288 17.7091 16.289C17.5692 16.1491 17.391 16.0539 17.197 16.0153C17.0031 15.9767 16.802 15.9965 16.6193 16.0722C16.4365 16.1479 16.2804 16.2761 16.1705 16.4405C16.0606 16.605 16.002 16.7983 16.002 16.9961C16.002 17.2613 16.1073 17.5157 16.2948 17.7032C16.4824 17.8907 16.7367 17.9961 17.002 17.9961ZM7.00195 13.9961C7.19973 13.9961 7.39307 13.9374 7.55752 13.8276C7.72197 13.7177 7.85015 13.5615 7.92583 13.3788C8.00152 13.1961 8.02132 12.995 7.98274 12.801C7.94415 12.607 7.84891 12.4288 7.70906 12.289C7.56921 12.1491 7.39102 12.0539 7.19704 12.0153C7.00306 11.9767 6.802 11.9965 6.61927 12.0722C6.43654 12.1479 6.28036 12.2761 6.17048 12.4405C6.0606 12.605 6.00195 12.7983 6.00195 12.9961C6.00195 13.2613 6.10731 13.5157 6.29485 13.7032C6.48238 13.8907 6.73674 13.9961 7.00195 13.9961ZM19.002 3.99609H18.002V2.99609C18.002 2.73088 17.8966 2.47652 17.7091 2.28899C17.5215 2.10145 17.2672 1.99609 17.002 1.99609C16.7367 1.99609 16.4824 2.10145 16.2948 2.28899C16.1073 2.47652 16.002 2.73088 16.002 2.99609V3.99609H8.00195V2.99609C8.00195 2.73088 7.8966 2.47652 7.70906 2.28899C7.52152 2.10145 7.26717 1.99609 7.00195 1.99609C6.73674 1.99609 6.48238 2.10145 6.29485 2.28899C6.10731 2.47652 6.00195 2.73088 6.00195 2.99609V3.99609H5.00195C4.2063 3.99609 3.44324 4.31216 2.88063 4.87477C2.31802 5.43738 2.00195 6.20044 2.00195 6.99609V18.9961C2.00195 19.7917 2.31802 20.5548 2.88063 21.1174C3.44324 21.68 4.2063 21.9961 5.00195 21.9961H19.002C19.7976 21.9961 20.5607 21.68 21.1233 21.1174C21.6859 20.5548 22.002 19.7917 22.002 18.9961V6.99609C22.002 6.20044 21.6859 5.43738 21.1233 4.87477C20.5607 4.31216 19.7976 3.99609 19.002 3.99609ZM20.002 18.9961C20.002 19.2613 19.8966 19.5157 19.7091 19.7032C19.5215 19.8907 19.2672 19.9961 19.002 19.9961H5.00195C4.73674 19.9961 4.48238 19.8907 4.29485 19.7032C4.10731 19.5157 4.00195 19.2613 4.00195 18.9961V9.99609H20.002V18.9961ZM20.002 7.99609H4.00195V6.99609C4.00195 6.73088 4.10731 6.47652 4.29485 6.28899C4.48238 6.10145 4.73674 5.99609 5.00195 5.99609H19.002C19.2672 5.99609 19.5215 6.10145 19.7091 6.28899C19.8966 6.47652 20.002 6.73088 20.002 6.99609V7.99609ZM7.00195 17.9961C7.19973 17.9961 7.39307 17.9374 7.55752 17.8276C7.72197 17.7177 7.85015 17.5615 7.92583 17.3788C8.00152 17.1961 8.02132 16.995 7.98274 16.801C7.94415 16.607 7.84891 16.4288 7.70906 16.289C7.56921 16.1491 7.39102 16.0539 7.19704 16.0153C7.00306 15.9767 6.802 15.9965 6.61927 16.0722C6.43654 16.1479 6.28036 16.2761 6.17048 16.4405C6.0606 16.605 6.00195 16.7983 6.00195 16.9961C6.00195 17.2613 6.10731 17.5157 6.29485 17.7032C6.48238 17.8907 6.73674 17.9961 7.00195 17.9961Z" fill="white"/>
</svg>
