<svg width="18" height="18" viewBox="0 0 18 18" fill="none" xmlns="http://www.w3.org/2000/svg">
<path d="M11.9905 17.0399C11.7847 17.6264 11.7517 17.5668 11.5 17L8.21651 11.4686L11.688 7.99638L11.6942 7.99017L11.7002 7.98374C11.9108 7.75773 12.0255 7.45879 12.02 7.14991C12.0146 6.84103 11.8895 6.54633 11.671 6.32789C11.4526 6.10944 11.1579 5.98432 10.849 5.97887C10.5401 5.97342 10.2412 6.08807 10.0152 6.29867L10.0087 6.30466L10.0025 6.31088L6.53013 9.78231L0.907155 7.28297C0.339871 7.03055 0.372975 6.21401 0.958997 6.00835L16.5852 0.539732C17.1277 0.350186 17.6486 0.871336 17.4593 1.41376L14.7249 9.22684L11.9905 17.0399Z" stroke="#005A8D"/>
</svg>
